<?xml version='1.0' encoding='utf-8'?>
<svg xmlns="http://www.w3.org/2000/svg" xmlns:inkscape="http://www.inkscape.org/namespaces/inkscape" xmlns:sodipodi="http://sodipodi.sourceforge.net/DTD/sodipodi-0.dtd" width="64" height="64" viewBox="0 0 64 64" version="1.1" id="search"><g id="layer1" inkscape:label="Layer 1" inkscape:groupmode="layer"><g id="search" inkscape:label="search" data-original-id="path266" transform="translate(-449.057950,0.665200)"><path id="search-shape" style="fill:#f9f9f9;stroke-width:1.25865" d="m 489.91191,43.533931 -4.20242,-4.202388 -2.28985,0.943057 -2.28986,0.94306 -3.16369,-0.0085 -3.16368,-0.0085 -1.94972,-0.765521 -1.94976,-0.765523 -2.07324,-2.044394 -2.07325,-2.044392 -0.96196,-1.998117 -0.96194,-1.998115 -0.01,-3.330197 -0.01,-3.330192 1.06854,-2.255816 1.06853,-2.255816 1.83929,-1.839311 c 1.03877,-1.038767 2.67539,-2.231103 3.76024,-2.739473 l 1.92095,-0.900164 h 3.51408 3.51411 l 2.2531,1.143614 2.25309,1.143612 1.61803,1.770389 c 0.88991,0.973712 2.04115,2.632038 2.5583,3.685167 l 0.94025,1.91478 0.11463,2.677875 0.11463,2.677877 -0.88116,2.483922 c -0.48467,1.366159 -0.96348,2.808929 -1.06404,3.206158 l -0.18287,0.722229 4.04008,4.192569 4.04014,4.192568 -0.33576,0.627354 c -0.35538,0.664045 -2.24372,2.364292 -2.62583,2.364292 -0.12407,0 -2.11689,-1.891078 -4.42822,-4.202389 z m -7.76035,-7.374002 c 1.78295,-0.917396 3.57021,-2.933659 4.30426,-4.855821 l 0.59145,-1.548644 -0.1614,-2.248972 -0.1614,-2.248978 -0.70133,-1.37344 c -0.84797,-1.660634 -2.33023,-2.961829 -4.56027,-4.003288 l -1.6651,-0.777621 -1.70647,-0.0032 c -3.32032,-0.0062 -6.34603,1.727797 -8.03873,4.607237 l -0.91139,1.550366 0.004,2.830665 0.004,2.830666 0.72569,1.363606 c 0.8647,1.624892 2.70732,3.312575 4.57285,4.188376 l 1.35386,0.635583 2.49765,-0.124681 2.49763,-0.124681 z" sodipodi:nodetypes="ccccccccccccccccsscccccsscccsscccsscccscccsscsscccsscccc" /></g></g></svg>