<?xml version="1.0" encoding="UTF-8" standalone="no"?>
<!-- Created with Inkscape (http://www.inkscape.org/) -->

<svg
   width="53.461239mm"
   height="58.072926mm"
   viewBox="0 0 53.461239 58.072926"
   version="1.1"
   id="svg1"
   xml:space="preserve"
   xmlns:inkscape="http://www.inkscape.org/namespaces/inkscape"
   xmlns:sodipodi="http://sodipodi.sourceforge.net/DTD/sodipodi-0.dtd"
   xmlns="http://www.w3.org/2000/svg"
   xmlns:svg="http://www.w3.org/2000/svg"><sodipodi:namedview
     id="namedview1"
     pagecolor="#505050"
     bordercolor="#ffffff"
     borderopacity="1"
     inkscape:showpageshadow="0"
     inkscape:pageopacity="0"
     inkscape:pagecheckerboard="1"
     inkscape:deskcolor="#505050"
     inkscape:document-units="mm"><inkscape:page
       x="0"
       y="0"
       width="53.461239"
       height="58.072926"
       id="page2"
       margin="0"
       bleed="0" /></sodipodi:namedview><defs
     id="defs1" /><g
     inkscape:label="Layer 1"
     inkscape:groupmode="layer"
     id="layer1"
     transform="translate(-87.342195,-125.6797)"><path
       style="fill:#f9f9f9"
       d="m 113.40408,183.75263 c -8.61373,-5.27659 -17.168246,-10.65011 -25.818746,-15.86639 l 6.54131,-3.95461 19.708516,12.30256 20.35832,-12.22551 6.15858,3.70944 z m -25.478796,-28.08518 7.8676,-5.28481 -8.45069,-5.24299 0.14,-15.6277 6.08056,-3.83225 20.485186,12.92898 20.54692,-12.92142 6.06857,3.82469 0.14,15.64798 -8.53359,5.45115 c 2.61189,1.76303 5.34565,3.35695 8.02932,5.0118 -8.74885,5.37114 -17.53019,10.69301 -26.29937,16.03202 z m 43.477726,-6.11656 0.1434,-10.41304 h -0.26721 l -17.16228,11.10049 -17.271136,-11.10049 -0.23555,10.27921 17.330206,11.0679 c 5.92252,-3.45824 11.66294,-7.26453 17.46257,-10.93407 z"
       id="path1"
       sodipodi:nodetypes="cccccccccccccccccccccccccccc" /></g></svg>
