<?xml version="1.0" encoding="UTF-8" standalone="no"?>
<svg
   width="64"
   height="64"
   viewBox="0 0 64 64"
   version="1.1"
   id="light-dramatic"
   sodipodi:docname="light-dramatic.svg"
   inkscape:export-filename="warp-push.svg"
   inkscape:export-xdpi="96"
   inkscape:export-ydpi="96"
   xmlns:inkscape="http://www.inkscape.org/namespaces/inkscape"
   xmlns:sodipodi="http://sodipodi.sourceforge.net/DTD/sodipodi-0.dtd"
   xmlns="http://www.w3.org/2000/svg"
   xmlns:svg="http://www.w3.org/2000/svg">
  <defs
     id="defs1" />
  <sodipodi:namedview
     id="namedview1"
     pagecolor="#505050"
     bordercolor="#ffffff"
     borderopacity="1"
     inkscape:showpageshadow="0"
     inkscape:pageopacity="0"
     inkscape:pagecheckerboard="1"
     inkscape:deskcolor="#505050">
    <inkscape:page
       x="0"
       y="0"
       width="64"
       height="64"
       id="page2"
       margin="0"
       bleed="0" />
  </sodipodi:namedview>
  <title
     id="title1">light-dramatic</title>
  <path
     d="m 6.43295,55.44377 c 3.17281,-4.512251 7.241516,-6.887779 11.18933,-9.017119 5.579833,-2.590746 11.443419,-1.641838 17.155257,-2.283839 1.827522,0.116067 2.729505,-4.397644 4.676659,-1.550642 2.516322,2.551287 5.321416,4.433688 7.559754,7.65856 -2.977395,2.55942 -6.363634,3.406967 -9.576666,4.865328 -2.242641,0.918668 -2.591867,-4.329544 -5.012846,-3.440524 C 25.22158,51.379878 17.875055,51.571705 10.919853,54.97125 9.596356,55.252555 6.773582,57.47611 6.201402,55.924403 L 6.362771,55.644479 Z M 7.220785,41.369496 c 3.121141,-4.461994 6.972498,-7.45108 10.899228,-9.543744 9.4785,-4.604078 19.585901,-5.379458 29.348759,-3.023906 1.9604,1.120898 3.221396,-4.120622 5.238483,-1.268764 1.850882,2.186228 4.96641,3.918433 5.812503,6.933002 -1.73315,2.243058 -4.082949,2.552215 -6.100883,3.841133 -1.69234,1.045829 -4.518945,2.783047 -4.939582,-1.262941 -1.947432,-2.107271 -4.509946,-1.290932 -6.73438,-1.884908 -8.400235,-1.012982 -16.940681,-0.254499 -25.06394,3.555861 -2.966142,1.300663 -5.899357,2.796035 -8.882511,3.994982 C 6.62816,42.173203 7.114971,41.80538 7.220785,41.369496 Z M 6.554999,28.057161 c 1.754014,-3.338452 4.317164,-5.129736 6.539598,-7.499777 6.772503,-6.430301 14.676743,-8.369452 22.367958,-9.577242 1.625059,-1.7832701 3.112326,-4.6728891 5.203196,-2.2267731 2.418269,1.201493 4.845847,2.5395431 6.999279,4.7346341 -1.344387,3.106772 -3.840107,3.970643 -5.796805,5.735023 -1.933449,1.770794 -4.500324,2.967708 -5.771527,-0.528284 -2.267618,-0.624749 -4.612045,0.173509 -6.90367,0.328107 -7.345871,1.168864 -14.426581,4.890673 -21.232103,9.350042 -0.45316,0.239576 -1.076104,0.43395 -1.405926,-0.31573 z"
     style="fill:#f9f9f9;stroke-width:1.14068"
     id="path1-5" />
</svg>
